# xmcd CD database file
#
# Track frame offsets:
#	150
#	19183
#	44446
#	61024
#	83280
#	104891
#	133187
#	153958
#	174798
#	205465
#	225460
#	246311
#	264412
#
# Disc length: 3802 seconds
#
# Revision: 1
# Processed by: cddbd v1.5PL3 Copyright (c) Steve Scherf et al.
# Submitted via: CDex 1.51
#
DISCID=a50ed80d
DTITLE=Next World - BoA
DYEAR=2003
DGENRE=JPop
TTITLE0=HOLIDAY
TTITLE1=奇蹟（SOUL’d OUT Remix）
TTITLE2=Flying without wings
TTITLE3=Show me what you got（DJ WATARAI REMIX）
TTITLE4=JEWEL SONG（AKIRA’S CANTO DIAMANTE VERSION）
TTITLE5=Shine We Are！（GROOVE THAT SOUL REMIX）
TTITLE6=flower（D．I’s “Luv hurts”REMIX）
TTITLE7=WINDING ROAD feat．DABO
TTITLE8=Everything needs love（Piano−pella）
TTITLE9=10.VALENTI(English Version)
TTITLE10=11.Every Heart(English Version)
TTITLE11=12.LISTEN TO MY HEART(English Version)
TTITLE12=13.Amazing Kiss(English Version)
EXTD=YEAR: 2003
EXTT0=
EXTT1=
EXTT2=
EXTT3=
EXTT4=
EXTT5=
EXTT6=
EXTT7=
EXTT8=
EXTT9=
EXTT10=
EXTT11=
EXTT12=
PLAYORDER=
